<?xml version="1.0" standalone="no"?><!DOCTYPE svg PUBLIC "-//W3C//DTD SVG 1.1//EN" "http://www.w3.org/Graphics/SVG/1.1/DTD/svg11.dtd"><svg class="icon" width="200px" height="200.00px" viewBox="0 0 1024 1024" version="1.1" xmlns="http://www.w3.org/2000/svg"><path fill="#707070" d="M984 219c-34.8 15.4-72 25.8-111.2 30.6 40-24 70.8-62 85.2-107.2-37.4 22.2-78.8 38.4-123 47C799.6 151.6 749.2 128 693.6 128c-107 0-193.6 86.8-193.6 193.8 0 15.2 1.6 30 5 44.2-161-8-303.8-85.2-399.2-202.6-16.6 28.6-26.2 62-26.2 97.4 0 67.2 34.4 126.6 86.4 161.4C134 421.4 104 412.6 78 398c0 0.8 0 1.6 0 2.4 0 94 66.8 172.2 155.4 190-16.2 4.4-33.4 6.8-51 6.8-12.4 0-24.6-1.2-36.4-3.6 24.6 77 96.2 133 181 134.6-66.2 52-149.8 83-240.6 83-15.6 0-31-1-46.2-2.8C125.6 864 227.4 896 336.6 896 693.2 896 888 600.6 888 344.4c0-8.4-0.2-16.8-0.6-25C925.2 292 958 258 984 219z" /></svg>